<svg xmlns="http://www.w3.org/2000/svg" width="294" height="50" viewBox="0 0 294 50"><title>Untitled-1</title><path d="M24.266,49C9.747,49,.2,38.657.2,25.066.2,12.006,10.144,1,24.133,1c8.089,0,13.061,2.254,17.834,6.3L36.8,13.464C33.216,10.415,29.7,8.492,23.8,8.492c-8.553,0-15.05,7.425-15.05,16.441,0,9.614,6.3,16.641,15.779,16.641a18.947,18.947,0,0,0,11.2-3.513V29.376H23.868V22.282H43.625V41.773A29.589,29.589,0,0,1,24.266,49Z" fill="#1b1b1b"/><path d="M75.23,49c-14.255,0-24.2-10.807-24.2-23.934S61.108,1,75.362,1s24.2,10.807,24.2,23.933S89.483,49,75.23,49Zm0-40.508c-9.216,0-15.647,7.359-15.647,16.441s6.564,16.575,15.779,16.575,15.646-7.359,15.646-16.442S84.445,8.492,75.23,8.492Z" fill="#1b1b1b"/><path d="M125.656,48.2h-8.221V9.354H102.716V1.8h37.658V9.354H125.656Z" fill="#1b1b1b"/><path d="M155.332,28.646V48.2h-8.155V1.8h8.155V21.088h22.144V1.8h8.154V48.2h-8.154V28.646Z" fill="#1b1b1b"/><path d="M240.525,48.2h-8.618L227.2,37H205.255l-4.774,11.2h-8.352L212.548,1.465h7.558ZM216.194,11.21l-7.956,18.563h15.978Z" fill="#1b1b1b"/><path d="M269.869,36.8H269.6L255.085,15.055V48.2h-8.022V1.8h8.685l14.121,21.945L283.99,1.8h8.685V48.2h-8.154V14.923Z" fill="#1b1b1b"/></svg>