<?xml version="1.0" encoding="UTF-8"?>
<svg width="584px" height="52px" viewBox="0 0 584 52" version="1.1" xmlns="http://www.w3.org/2000/svg" xmlns:xlink="http://www.w3.org/1999/xlink">
    <!-- Generator: Sketch 53.2 (72643) - https://sketchapp.com -->
    <title>AktivGroteskBold</title>
    <desc>Created with Sketch.</desc>
    <g id="Page-1" stroke="none" stroke-width="1" fill="none" fill-rule="evenodd">
        <path d="M18.904,1.448 L28.56,1.448 L46.784,50 L35.904,50 L32.028,38.78 L15.028,38.78 L11.152,50 L0.68,50 L18.904,1.448 Z M29.376,30.416 L23.46,13.008 L17.612,30.416 L29.376,30.416 Z M50.68,1.448 L59.996,1.448 L59.996,26.88 L73.664,14.504 L84.68,14.504 L71.76,26.744 L85.7,50 L75.432,50 L64.96,32.048 L59.996,36.536 L59.996,50 L50.68,50 L50.68,1.448 Z M91.772,21.916 L86.196,21.916 L86.196,14.504 L91.772,14.504 L91.772,5.052 L101.292,5.052 L101.292,14.504 L109.452,14.504 L109.452,21.916 L101.292,21.916 L101.292,38.304 C101.292,40.162676 101.677329,41.4206634 102.448,42.078 C103.218671,42.7353366 104.215994,43.064 105.44,43.064 C106.07467,43.064 106.720663,43.0300003 107.378,42.962 C108.035337,42.8939997 108.68133,42.7693342 109.316,42.588 L110.676,49.592 C109.361327,50.000002 108.080673,50.2833325 106.834,50.442 C105.587327,50.6006675 104.397339,50.68 103.264,50.68 C99.3653138,50.68 96.4753427,49.750676 94.594,47.892 C92.7126573,46.033324 91.772,42.9053553 91.772,38.508 L91.772,21.916 Z M114.436,14.504 L123.956,14.504 L123.956,50 L114.436,50 L114.436,14.504 Z M114.3,1.448 L124.092,1.448 L124.092,10.016 L114.3,10.016 L114.3,1.448 Z M127.784,14.504 L138.8,14.504 L146.756,39.188 L154.712,14.504 L165.252,14.504 L151.244,50 L141.724,50 L127.784,14.504 Z M206.228,23.412 L224.86,23.412 L224.86,43.948 C222.366654,46.2600116 219.397351,48.0506603 215.952,49.32 C212.506649,50.5893397 208.948018,51.224 205.276,51.224 C201.422647,51.224 198.056681,50.6120061 195.178,49.388 C192.299319,48.1639939 189.90801,46.4413444 188.004,44.22 C186.09999,41.9986556 184.672005,39.3126824 183.72,36.162 C182.767995,33.0113176 182.292,29.532019 182.292,25.724 C182.292,21.7799803 182.813328,18.2440156 183.856,15.116 C184.898672,11.9879844 186.383324,9.31334444 188.31,7.092 C190.236676,4.87065556 192.582653,3.17067256 195.348,1.992 C198.113347,0.81332744 201.195983,0.224 204.596,0.224 C207.724016,0.224 210.409989,0.60932948 212.654,1.38 C214.898011,2.15067052 216.801992,3.2159932 218.366,4.576 C219.930008,5.9360068 221.176662,7.5226576 222.106,9.336 C223.035338,11.1493424 223.703998,13.0986562 224.112,15.184 L214.048,16.476 C213.775999,15.2519939 213.447335,14.175338 213.062,13.246 C212.676665,12.316662 212.121337,11.5233366 211.396,10.866 C210.670663,10.2086634 209.764005,9.7100017 208.676,9.37 C207.587995,9.0299983 206.228008,8.86 204.596,8.86 C200.65198,8.86 197.705343,10.3333186 195.756,13.28 C193.806657,16.2266814 192.832,20.3746399 192.832,25.724 C192.832,31.1186936 193.81799,35.2779854 195.79,38.202 C197.76201,41.1260146 200.969311,42.588 205.412,42.588 C207.542677,42.588 209.389992,42.3726688 210.954,41.942 C212.518008,41.5113312 214.025326,40.8426712 215.476,39.936 L215.476,31.844 L206.228,31.844 L206.228,23.412 Z M231.476,14.504 L240.724,14.504 L240.724,19.468 C241.902673,17.609324 243.330658,16.215338 245.008,15.286 C246.685342,14.356662 248.453324,13.892 250.312,13.892 C251.218671,13.892 251.966664,13.9259997 252.556,13.994 C253.145336,14.0620003 253.666664,14.1413329 254.12,14.232 L252.964,22.868 C251.875995,22.5959986 250.538675,22.46 248.952,22.46 C247.909328,22.46 246.912005,22.5846654 245.96,22.834 C245.007995,23.0833346 244.146671,23.5479966 243.376,24.228 C242.559996,24.953337 241.959335,25.7693288 241.574,26.676 C241.188665,27.5826712 240.996,28.5119952 240.996,29.464 L240.996,50 L231.476,50 L231.476,14.504 Z M273.996,51.088 C268.283971,51.088 263.864016,49.4560163 260.736,46.192 C257.607984,42.9279837 256.044,38.258697 256.044,32.184 C256.044,29.2826522 256.463329,26.6646783 257.302,24.33 C258.140671,21.9953217 259.341992,20.0233414 260.906,18.414 C262.470008,16.8046586 264.362656,15.5693376 266.584,14.708 C268.805344,13.8466624 271.275986,13.416 273.996,13.416 C276.761347,13.416 279.254656,13.8466624 281.476,14.708 C283.697344,15.5693376 285.589992,16.8046586 287.154,18.414 C288.718008,20.0233414 289.907996,21.9953217 290.724,24.33 C291.540004,26.6646783 291.948,29.2826522 291.948,32.184 C291.948,35.1306814 291.528671,37.7713217 290.69,40.106 C289.851329,42.4406783 288.650008,44.4239918 287.086,46.056 C285.521992,47.6880082 283.629344,48.9346624 281.408,49.796 C279.186656,50.6573376 276.716014,51.088 273.996,51.088 Z M273.996,43.472 C276.716014,43.472 278.74466,42.4973431 280.082,40.548 C281.41934,38.5986569 282.088,35.8106848 282.088,32.184 C282.088,28.5573152 281.41934,25.7920095 280.082,23.888 C278.74466,21.9839905 276.716014,21.032 273.996,21.032 C271.275986,21.032 269.24734,21.9839905 267.91,23.888 C266.57266,25.7920095 265.904,28.5573152 265.904,32.184 C265.904,35.8560184 266.561327,38.6553237 267.876,40.582 C269.190673,42.5086763 271.230653,43.472 273.996,43.472 Z M300.332,21.916 L294.756,21.916 L294.756,14.504 L300.332,14.504 L300.332,5.052 L309.852,5.052 L309.852,14.504 L318.012,14.504 L318.012,21.916 L309.852,21.916 L309.852,38.304 C309.852,40.162676 310.237329,41.4206634 311.008,42.078 C311.778671,42.7353366 312.775994,43.064 314,43.064 C314.63467,43.064 315.280663,43.0300003 315.938,42.962 C316.595337,42.8939997 317.24133,42.7693342 317.876,42.588 L319.236,49.592 C317.921327,50.000002 316.640673,50.2833325 315.394,50.442 C314.147327,50.6006675 312.957339,50.68 311.824,50.68 C307.925314,50.68 305.035343,49.750676 303.154,47.892 C301.272657,46.033324 300.332,42.9053553 300.332,38.508 L300.332,21.916 Z M354.752,38.916 C354.11733,42.9053533 352.519346,45.931323 349.958,47.994 C347.396654,50.056677 343.668024,51.088 338.772,51.088 C332.878637,51.088 328.447348,49.4560163 325.478,46.192 C322.508652,42.9279837 321.024,38.3040299 321.024,32.32 C321.024,29.327985 321.454662,26.6646783 322.316,24.33 C323.177338,21.9953217 324.389992,20.0120082 325.954,18.38 C327.518008,16.7479918 329.387989,15.5126709 331.564,14.674 C333.740011,13.8353291 336.142654,13.416 338.772,13.416 C344.212027,13.416 348.30332,14.9799844 351.046,18.108 C353.78868,21.2360156 355.16,25.4519735 355.16,30.756 L355.16,34.564 L330.544,34.564 C330.634667,37.4200143 331.359993,39.6526586 332.72,41.262 C334.080007,42.8713414 336.119986,43.676 338.84,43.676 C342.602685,43.676 344.823997,42.0893492 345.504,38.916 L354.752,38.916 Z M345.98,28.308 C345.98,25.8599878 345.379339,23.9560068 344.178,22.596 C342.976661,21.2359932 341.106679,20.556 338.568,20.556 C337.29866,20.556 336.188005,20.759998 335.236,21.168 C334.283995,21.576002 333.479337,22.1313298 332.822,22.834 C332.164663,23.5366702 331.654668,24.352662 331.292,25.282 C330.929332,26.211338 330.725334,27.2199946 330.68,28.308 L345.98,28.308 Z M368.168,38.712 C368.485335,40.7973438 369.323993,42.1573302 370.684,42.792 C372.044007,43.4266698 373.67599,43.744 375.58,43.744 C377.846678,43.744 379.467328,43.4606695 380.442,42.894 C381.416672,42.3273305 381.904,41.4093397 381.904,40.14 C381.904,39.2333288 381.598003,38.4400034 380.986,37.76 C380.373997,37.0799966 379.206675,36.6040014 377.484,36.332 L372.588,35.516 C368.281312,34.8359966 365.074011,33.6686749 362.966,32.014 C360.857989,30.3593251 359.804,27.8546834 359.804,24.5 C359.804,22.7773247 360.177996,21.2360068 360.926,19.876 C361.674004,18.5159932 362.727993,17.3600048 364.088,16.408 C365.448007,15.4559952 367.068657,14.7193359 368.95,14.198 C370.831343,13.6766641 372.905322,13.416 375.172,13.416 C377.982681,13.416 380.33999,13.6993305 382.244,14.266 C384.14801,14.8326695 385.700661,15.5919952 386.902,16.544 C388.103339,17.4960048 389.009997,18.6293268 389.622,19.944 C390.234003,21.2586732 390.675999,22.6639925 390.948,24.16 L382.448,25.248 C382.039998,23.6159918 381.326005,22.4146705 380.306,21.644 C379.285995,20.8733295 377.642678,20.488 375.376,20.488 C374.10666,20.488 373.052671,20.589999 372.214,20.794 C371.375329,20.998001 370.718002,21.2586651 370.242,21.576 C369.765998,21.8933349 369.426001,22.255998 369.222,22.664 C369.017999,23.072002 368.916,23.4573315 368.916,23.82 C368.916,24.953339 369.26733,25.7806641 369.97,26.302 C370.67267,26.8233359 372.04399,27.2653315 374.084,27.628 L378.572,28.376 C381.065346,28.784002 383.127992,29.3053302 384.76,29.94 C386.392008,30.5746698 387.695328,31.356662 388.67,32.286 C389.644672,33.215338 390.324665,34.3146603 390.71,35.584 C391.095335,36.8533397 391.288,38.3266583 391.288,40.004 C391.288,43.3586834 390.018679,46.0446566 387.48,48.062 C384.941321,50.0793434 381.020027,51.088 375.716,51.088 C373.585323,51.088 371.556676,50.8953353 369.63,50.51 C367.703324,50.1246647 365.980674,49.4560048 364.462,48.504 C362.943326,47.5519952 361.696672,46.2826746 360.722,44.696 C359.747328,43.1093254 359.192001,41.1146787 359.056,38.712 L368.168,38.712 Z M396.816,1.448 L406.132,1.448 L406.132,26.88 L419.8,14.504 L430.816,14.504 L417.896,26.744 L431.836,50 L421.568,50 L411.096,32.048 L406.132,36.536 L406.132,50 L396.816,50 L396.816,1.448 Z M449.896,1.448 L467.372,1.448 C470.953351,1.448 473.911322,1.7879966 476.246,2.468 C478.580678,3.1480034 480.427993,4.07732744 481.788,5.256 C483.148007,6.43467256 484.088664,7.8173254 484.61,9.404 C485.131336,10.9906746 485.392,12.713324 485.392,14.572 C485.392,16.4760095 484.984004,18.2666583 484.168,19.944 C483.351996,21.6213417 481.810678,23.0493274 479.544,24.228 C480.994674,24.9986705 482.184662,25.8033291 483.114,26.642 C484.043338,27.4806709 484.768664,28.3759952 485.29,29.328 C485.811336,30.2800048 486.173999,31.2546617 486.378,32.252 C486.582001,33.2493383 486.684,34.2466617 486.684,35.244 C486.684,37.2840102 486.378003,39.2106576 485.766,41.024 C485.153997,42.8373424 484.134007,44.4013268 482.706,45.716 C481.277993,47.0306732 479.408012,48.0733295 477.096,48.844 C474.783988,49.6146705 471.928017,50 468.528,50 L449.896,50 L449.896,1.448 Z M468.528,20.692 C471.20268,20.692 473.038662,20.1933383 474.036,19.196 C475.033338,18.1986617 475.532,16.770676 475.532,14.912 C475.532,12.9173234 474.886006,11.5006709 473.594,10.662 C472.301994,9.82332914 470.114682,9.404 467.032,9.404 L459.688,9.404 L459.688,20.692 L468.528,20.692 Z M468.188,42.044 C469.865342,42.044 471.259328,41.8853349 472.37,41.568 C473.480672,41.2506651 474.375997,40.7860031 475.056,40.174 C475.736003,39.5619969 476.211999,38.8480041 476.484,38.032 C476.756001,37.2159959 476.892,36.2866719 476.892,35.244 C476.892,33.1586562 476.325339,31.5720054 475.192,30.484 C474.058661,29.3959946 472.064014,28.852 469.208,28.852 L459.688,28.852 L459.688,42.044 L468.188,42.044 Z M508.872,51.088 C503.159971,51.088 498.740016,49.4560163 495.612,46.192 C492.483984,42.9279837 490.92,38.258697 490.92,32.184 C490.92,29.2826522 491.339329,26.6646783 492.178,24.33 C493.016671,21.9953217 494.217992,20.0233414 495.782,18.414 C497.346008,16.8046586 499.238656,15.5693376 501.46,14.708 C503.681344,13.8466624 506.151986,13.416 508.872,13.416 C511.637347,13.416 514.130656,13.8466624 516.352,14.708 C518.573344,15.5693376 520.465992,16.8046586 522.03,18.414 C523.594008,20.0233414 524.783996,21.9953217 525.6,24.33 C526.416004,26.6646783 526.824,29.2826522 526.824,32.184 C526.824,35.1306814 526.404671,37.7713217 525.566,40.106 C524.727329,42.4406783 523.526008,44.4239918 521.962,46.056 C520.397992,47.6880082 518.505344,48.9346624 516.284,49.796 C514.062656,50.6573376 511.592014,51.088 508.872,51.088 Z M508.872,43.472 C511.592014,43.472 513.62066,42.4973431 514.958,40.548 C516.29534,38.5986569 516.964,35.8106848 516.964,32.184 C516.964,28.5573152 516.29534,25.7920095 514.958,23.888 C513.62066,21.9839905 511.592014,21.032 508.872,21.032 C506.151986,21.032 504.12334,21.9839905 502.786,23.888 C501.44866,25.7920095 500.78,28.5573152 500.78,32.184 C500.78,35.8560184 501.437327,38.6553237 502.752,40.582 C504.066673,42.5086763 506.106653,43.472 508.872,43.472 Z M533.1,1.448 L542.62,1.448 L542.62,50 L533.1,50 L533.1,1.448 Z M574.736,45.308 C572.015986,49.1613526 568.344023,51.088 563.72,51.088 C558.733308,51.088 555.016012,49.4106834 552.568,46.056 C550.119988,42.7013166 548.896,38.0546964 548.896,32.116 C548.896,29.3506528 549.24733,26.8233448 549.95,24.534 C550.65267,22.2446552 551.661327,20.2726749 552.976,18.618 C554.290673,16.9633251 555.89999,15.6826712 557.804,14.776 C559.70801,13.8693288 561.861321,13.416 564.264,13.416 C566.032009,13.416 567.788658,13.7333302 569.534,14.368 C571.279342,15.0026698 572.922659,16.2266576 574.464,18.04 L574.464,1.448 L583.984,1.448 L583.984,50 L574.736,50 L574.736,45.308 Z M574.532,31.844 C574.532,29.577322 574.339335,27.7640068 573.954,26.404 C573.568665,25.0439932 572.945338,23.9333376 572.084,23.072 C571.267996,22.2559959 570.372672,21.7233346 569.398,21.474 C568.423328,21.2246654 567.460005,21.1 566.508,21.1 C565.465328,21.1 564.479338,21.303998 563.55,21.712 C562.620662,22.120002 561.80467,22.7546624 561.102,23.616 C560.39933,24.4773376 559.844002,25.6106596 559.436,27.016 C559.027998,28.4213404 558.824,30.0986569 558.824,32.048 C558.824,34.1786773 559.016665,35.9579929 559.402,37.386 C559.787335,38.8140071 560.319997,39.9699956 561,40.854 C561.680003,41.7380044 562.473329,42.3726647 563.38,42.758 C564.286671,43.1433353 565.261328,43.336 566.304,43.336 C568.570678,43.336 570.429326,42.6786732 571.88,41.364 C572.786671,40.4573288 573.455331,39.3580065 573.886,38.066 C574.316669,36.7739935 574.532,35.1080102 574.532,33.068 L574.532,31.844 Z" id="AktivGroteskBold" fill="#1B1B1B" fill-rule="nonzero"></path>
    </g>
</svg>