<svg id="Layer_1" data-name="Layer 1" xmlns="http://www.w3.org/2000/svg" viewBox="0 0 473.1 115.44"><path d="M12.27,1.45V20.08H31.92V1.45H42.6V50H31.92V29.06H12.27V50H1.59V1.45Z" transform="translate(-1.59 -1.45)" style="fill:#1b1b1b"/><path d="M60.6,41.57a8.64,8.64,0,0,0,6.25,2.11,8.61,8.61,0,0,0,5-1.47,6.06,6.06,0,0,0,2.58-3.09H83q-2,6.33-6.26,9a18.36,18.36,0,0,1-10.2,2.72A20.18,20.18,0,0,1,59,49.56a15.53,15.53,0,0,1-5.64-3.78,17,17,0,0,1-3.57-5.84,21.39,21.39,0,0,1-1.26-7.48,20.58,20.58,0,0,1,1.29-7.35,17.06,17.06,0,0,1,9.35-9.79,18.26,18.26,0,0,1,7.31-1.43,16.64,16.64,0,0,1,7.82,1.74,15.67,15.67,0,0,1,5.48,4.65A19.08,19.08,0,0,1,82.9,27a24.69,24.69,0,0,1,.68,7.82H58.22C58.35,37.9,59.15,40.16,60.6,41.57Zm10.91-18.5q-1.73-1.91-5.27-1.9A8.41,8.41,0,0,0,62.4,22,7.3,7.3,0,0,0,60,23.89a7.15,7.15,0,0,0-1.29,2.45,10.66,10.66,0,0,0-.44,2.31H73.93A11.2,11.2,0,0,0,71.51,23.07Z" transform="translate(-1.59 -1.45)" style="fill:#1b1b1b"/><path d="M98.45,1.45V50H88.8V1.45Z" transform="translate(-1.59 -1.45)" style="fill:#1b1b1b"/><path d="M114.13,50l-12-35.16h10.13l7.41,24h.14l7.41-24h9.59L124.87,50Z" transform="translate(-1.59 -1.45)" style="fill:#1b1b1b"/><path d="M149.25,41.57a8.66,8.66,0,0,0,6.26,2.11,8.56,8.56,0,0,0,5-1.47,6,6,0,0,0,2.59-3.09h8.5q-2,6.33-6.26,9a18.36,18.36,0,0,1-10.2,2.72,20.14,20.14,0,0,1-7.48-1.32,15.53,15.53,0,0,1-5.64-3.78,16.73,16.73,0,0,1-3.57-5.84,21.39,21.39,0,0,1-1.26-7.48,20.58,20.58,0,0,1,1.29-7.35,17,17,0,0,1,9.35-9.79,18.26,18.26,0,0,1,7.31-1.43A16.67,16.67,0,0,1,163,15.63a15.55,15.55,0,0,1,5.47,4.65,19.27,19.27,0,0,1,3.1,6.67,25,25,0,0,1,.68,7.82H146.87C147,37.9,147.8,40.16,149.25,41.57Zm10.92-18.5a6.79,6.79,0,0,0-5.27-1.9,8.41,8.41,0,0,0-3.84.78,7.3,7.3,0,0,0-2.45,1.94,7,7,0,0,0-1.29,2.45,11.38,11.38,0,0,0-.45,2.31h15.71A11.19,11.19,0,0,0,160.17,23.07Z" transform="translate(-1.59 -1.45)" style="fill:#1b1b1b"/><path d="M196.21,14.84V21.3h-7.07V38.71c0,1.63.27,2.72.82,3.27s1.63.81,3.26.81c.55,0,1.07,0,1.57-.07a12.14,12.14,0,0,0,1.42-.2V50a21,21,0,0,1-2.72.27c-1,0-2,.07-2.92.07a27.4,27.4,0,0,1-4.25-.31,9.93,9.93,0,0,1-3.54-1.19,6.21,6.21,0,0,1-2.41-2.51,9,9,0,0,1-.88-4.29V21.3h-5.85V14.84h5.85V4.3h9.65V14.84Z" transform="translate(-1.59 -1.45)" style="fill:#1b1b1b"/><path d="M200.86,9.4V1.45h9.65v8Zm9.65,5.44V50h-9.65V14.84Z" transform="translate(-1.59 -1.45)" style="fill:#1b1b1b"/><path d="M234,21.17a6.81,6.81,0,0,0-3.88,1,8.52,8.52,0,0,0-2.55,2.72,11.68,11.68,0,0,0-1.39,3.67,20.15,20.15,0,0,0-.41,4,19.32,19.32,0,0,0,.41,3.88A12.08,12.08,0,0,0,227.49,40,7.7,7.7,0,0,0,230,42.66a6.8,6.8,0,0,0,3.8,1,7.08,7.08,0,0,0,5.34-1.94,9.17,9.17,0,0,0,2.35-5.2h9.31q-.94,7-5.44,10.67t-11.49,3.67a19.31,19.31,0,0,1-7.24-1.32A16.08,16.08,0,0,1,221,45.85a16.8,16.8,0,0,1-3.6-5.68,19.47,19.47,0,0,1-1.3-7.24,23.52,23.52,0,0,1,1.19-7.58,17.08,17.08,0,0,1,3.51-6.05,16,16,0,0,1,5.64-4,19.21,19.21,0,0,1,7.62-1.43,21.75,21.75,0,0,1,6,.82,16,16,0,0,1,5.17,2.48,12.82,12.82,0,0,1,5.34,10h-9.45Q240.17,21.18,234,21.17Z" transform="translate(-1.59 -1.45)" style="fill:#1b1b1b"/><path d="M255.28,25.66A11.35,11.35,0,0,1,257,20a11.71,11.71,0,0,1,3.81-3.6,16.67,16.67,0,0,1,5.2-1.94,30.07,30.07,0,0,1,5.82-.58,39.23,39.23,0,0,1,5.37.38,16.27,16.27,0,0,1,5,1.46,9.79,9.79,0,0,1,3.68,3,8.5,8.5,0,0,1,1.42,5.14V42.18a35.12,35.12,0,0,0,.28,4.56,8.06,8.06,0,0,0,1,3.26h-9.79a15.18,15.18,0,0,1-.45-1.67A13.86,13.86,0,0,1,278,46.6a12.53,12.53,0,0,1-5.44,3.33,21.71,21.71,0,0,1-6.4,1,17.21,17.21,0,0,1-4.69-.61,10.83,10.83,0,0,1-3.81-1.9,9,9,0,0,1-2.55-3.27,11,11,0,0,1-.91-4.69,10.29,10.29,0,0,1,1.05-4.93A8.79,8.79,0,0,1,258,32.39a12.3,12.3,0,0,1,3.81-1.74,40.46,40.46,0,0,1,4.32-.91c1.45-.23,2.87-.41,4.28-.55a25.18,25.18,0,0,0,3.74-.61,6.45,6.45,0,0,0,2.58-1.19,2.61,2.61,0,0,0,.89-2.28,5.12,5.12,0,0,0-.51-2.48,3.75,3.75,0,0,0-1.36-1.43,5.54,5.54,0,0,0-2-.68,16.71,16.71,0,0,0-2.42-.17,7.32,7.32,0,0,0-4.49,1.23,5.46,5.46,0,0,0-1.9,4.08Zm22.31,7.14a4.51,4.51,0,0,1-1.53.85,17.12,17.12,0,0,1-2,.51c-.71.13-1.44.25-2.21.34s-1.55.2-2.32.34a16,16,0,0,0-2.14.54,6.28,6.28,0,0,0-1.83.92,4.24,4.24,0,0,0-1.26,1.46,4.67,4.67,0,0,0-.48,2.24,4.51,4.51,0,0,0,.48,2.18,3.68,3.68,0,0,0,1.29,1.39,5.53,5.53,0,0,0,1.9.72,12.81,12.81,0,0,0,2.25.2,8.49,8.49,0,0,0,4.42-1,6.31,6.31,0,0,0,2.31-2.28,7.38,7.38,0,0,0,.92-2.68,19.39,19.39,0,0,0,.17-2.18Z" transform="translate(-1.59 -1.45)" style="fill:#1b1b1b"/><path d="M325.26,1.45,345.52,34h.14V1.45h10V50H345l-20.2-32.5h-.14V50h-10V1.45Z" transform="translate(-1.59 -1.45)" style="fill:#1b1b1b"/><path d="M373.65,41.57a8.66,8.66,0,0,0,6.26,2.11,8.58,8.58,0,0,0,5-1.47,6,6,0,0,0,2.58-3.09H396q-2,6.33-6.25,9a18.36,18.36,0,0,1-10.2,2.72,20.14,20.14,0,0,1-7.48-1.32,15.56,15.56,0,0,1-5.65-3.78,17,17,0,0,1-3.57-5.84,21.39,21.39,0,0,1-1.25-7.48,20.58,20.58,0,0,1,1.29-7.35,17,17,0,0,1,9.35-9.79,18.23,18.23,0,0,1,7.31-1.43,16.67,16.67,0,0,1,7.82,1.74,15.64,15.64,0,0,1,5.47,4.65A19.27,19.27,0,0,1,396,27a25,25,0,0,1,.68,7.82H371.27C371.41,37.9,372.2,40.16,373.65,41.57Zm10.92-18.5a6.79,6.79,0,0,0-5.27-1.9,8.43,8.43,0,0,0-3.85.78A7.26,7.26,0,0,0,373,23.89a7,7,0,0,0-1.3,2.45,11.3,11.3,0,0,0-.44,2.31H387A11.19,11.19,0,0,0,384.57,23.07Z" transform="translate(-1.59 -1.45)" style="fill:#1b1b1b"/><path d="M425.29,50V45.1h-.21a10.83,10.83,0,0,1-4.75,4.42,14,14,0,0,1-6,1.36,16.93,16.93,0,0,1-6.36-1A9.23,9.23,0,0,1,404.07,47a11.2,11.2,0,0,1-2-4.55,28.06,28.06,0,0,1-.58-6V14.84h9.66V34.7c0,2.9.45,5.07,1.36,6.49s2.51,2.15,4.82,2.15c2.63,0,4.54-.79,5.71-2.35s1.77-4.14,1.77-7.72V14.84h9.66V50Z" transform="translate(-1.59 -1.45)" style="fill:#1b1b1b"/><path d="M451.65,41.57a8.66,8.66,0,0,0,6.26,2.11,8.56,8.56,0,0,0,5-1.47,6,6,0,0,0,2.58-3.09H474q-2,6.33-6.25,9a18.36,18.36,0,0,1-10.2,2.72,20.14,20.14,0,0,1-7.48-1.32,15.65,15.65,0,0,1-5.65-3.78,16.86,16.86,0,0,1-3.56-5.84,21.39,21.39,0,0,1-1.26-7.48,20.58,20.58,0,0,1,1.29-7.35,17,17,0,0,1,9.35-9.79,18.23,18.23,0,0,1,7.31-1.43,16.67,16.67,0,0,1,7.82,1.74,15.64,15.64,0,0,1,5.47,4.65A19.27,19.27,0,0,1,474,27a25,25,0,0,1,.68,7.82H449.27C449.41,37.9,450.2,40.16,451.65,41.57Zm10.92-18.5a6.79,6.79,0,0,0-5.27-1.9,8.43,8.43,0,0,0-3.85.78A7.26,7.26,0,0,0,451,23.89a7,7,0,0,0-1.3,2.45,11.3,11.3,0,0,0-.44,2.31H465A11.19,11.19,0,0,0,462.57,23.07Z" transform="translate(-1.59 -1.45)" style="fill:#1b1b1b"/><path d="M24.44,67.45a30.22,30.22,0,0,1,6.33.61,13.68,13.68,0,0,1,4.89,2,9.26,9.26,0,0,1,3.16,3.7A13,13,0,0,1,40,79.48a10.63,10.63,0,0,1-1.67,6.12,12.08,12.08,0,0,1-4.93,4,11.71,11.71,0,0,1,6.7,4.52,14.83,14.83,0,0,1,.78,14.14A12.35,12.35,0,0,1,37,112.67a17,17,0,0,1-5.51,2.51,24.55,24.55,0,0,1-6.36.82H1.59V67.45ZM23.08,87.1a7.63,7.63,0,0,0,4.69-1.36,5.13,5.13,0,0,0,1.84-4.42A5.65,5.65,0,0,0,29,78.53a4.59,4.59,0,0,0-1.63-1.7A6.92,6.92,0,0,0,25,76a15.38,15.38,0,0,0-2.75-.24h-10V87.1Zm.61,20.6a14.6,14.6,0,0,0,3-.3,7.53,7.53,0,0,0,2.51-1,5.19,5.19,0,0,0,1.74-1.94,6.7,6.7,0,0,0,.64-3.13q0-3.74-2.11-5.34a9,9,0,0,0-5.57-1.59H12.27V107.7Z" transform="translate(-1.59 -1.45)" style="fill:#1b1b1b"/><path d="M47.61,90.81A16.07,16.07,0,0,1,57,81.22a20,20,0,0,1,7.48-1.33A20.26,20.26,0,0,1,72,81.22,16.27,16.27,0,0,1,77.73,85a16.56,16.56,0,0,1,3.68,5.85,21.62,21.62,0,0,1,1.29,7.65,21.28,21.28,0,0,1-1.29,7.61,16.62,16.62,0,0,1-3.68,5.82,15.92,15.92,0,0,1-5.74,3.7,20.89,20.89,0,0,1-7.52,1.29A20.59,20.59,0,0,1,57,115.59a16.06,16.06,0,0,1-5.71-3.7,16.45,16.45,0,0,1-3.67-5.82,21.28,21.28,0,0,1-1.29-7.61A21.62,21.62,0,0,1,47.61,90.81Zm8.77,11.76a10.78,10.78,0,0,0,1.4,3.6,7.33,7.33,0,0,0,2.61,2.55,8,8,0,0,0,4.08,1,8.13,8.13,0,0,0,4.12-1,7.28,7.28,0,0,0,2.65-2.55,10.76,10.76,0,0,0,1.39-3.6A20,20,0,0,0,73,98.46a20.5,20.5,0,0,0-.41-4.15,10.57,10.57,0,0,0-1.39-3.61,7.8,7.8,0,0,0-2.65-2.55,8,8,0,0,0-4.12-1,7.38,7.38,0,0,0-6.69,3.53,10.59,10.59,0,0,0-1.4,3.61A21.24,21.24,0,0,0,56,98.46,20.76,20.76,0,0,0,56.38,102.57Z" transform="translate(-1.59 -1.45)" style="fill:#1b1b1b"/><path d="M97.94,67.45V116H88.29V67.45Z" transform="translate(-1.59 -1.45)" style="fill:#1b1b1b"/><path d="M129.9,111.51a10,10,0,0,1-4.45,4.12,16.31,16.31,0,0,1-13.16-.28,13.89,13.89,0,0,1-4.93-4.14,18.73,18.73,0,0,1-2.92-6,25.21,25.21,0,0,1-1-7.07,23.67,23.67,0,0,1,1-6.84,17.64,17.64,0,0,1,2.92-5.81A14.18,14.18,0,0,1,119,79.89a13.72,13.72,0,0,1,6,1.33,10.39,10.39,0,0,1,4.46,3.91h.13V67.45h9.66V116H130v-4.49Zm-.41-17.37a10.13,10.13,0,0,0-1.39-3.54,7.85,7.85,0,0,0-2.55-2.48,7.51,7.51,0,0,0-3.94-1,7.92,7.92,0,0,0-4,1A7.42,7.42,0,0,0,115,90.64a10.91,10.91,0,0,0-1.43,3.57,19,19,0,0,0-.44,4.18,17.75,17.75,0,0,0,.47,4.08,11.31,11.31,0,0,0,1.53,3.64,8.58,8.58,0,0,0,2.65,2.58,7.18,7.18,0,0,0,3.85,1,7.58,7.58,0,0,0,4-1,7.08,7.08,0,0,0,2.55-2.55,11.16,11.16,0,0,0,1.36-3.63,20.9,20.9,0,0,0,.41-4.22A20.37,20.37,0,0,0,129.49,94.14Z" transform="translate(-1.59 -1.45)" style="fill:#1b1b1b"/></svg>